<?xml version="1.0" encoding="UTF-8" standalone="no"?>
<!-- Created with Inkscape (http://www.inkscape.org/) -->

<svg
   width="68mm"
   height="17mm"
   viewBox="0 0 68 17"
   version="1.1"
   id="svg1"
   sodipodi:docname="decant-wordmark-light.svg"
   inkscape:version="1.4.2 (f4327f4, 2025-05-13)"
   inkscape:export-filename="decant-wordmark-light.png"
   inkscape:export-xdpi="298.82352"
   inkscape:export-ydpi="298.82352"
   xmlns:inkscape="http://www.inkscape.org/namespaces/inkscape"
   xmlns:sodipodi="http://sodipodi.sourceforge.net/DTD/sodipodi-0.dtd"
   xmlns="http://www.w3.org/2000/svg"
   xmlns:svg="http://www.w3.org/2000/svg">
  <sodipodi:namedview
     id="namedview1"
     pagecolor="#ffffff"
     bordercolor="#000000"
     borderopacity="0.25"
     inkscape:showpageshadow="2"
     inkscape:pageopacity="0.0"
     inkscape:pagecheckerboard="0"
     inkscape:deskcolor="#d1d1d1"
     inkscape:document-units="mm"
     inkscape:zoom="7.3577512"
     inkscape:cx="128.63985"
     inkscape:cy="32.075018"
     inkscape:window-width="3168"
     inkscape:window-height="1588"
     inkscape:window-x="347"
     inkscape:window-y="434"
     inkscape:window-maximized="0"
     inkscape:current-layer="svg1" />
  <defs
     id="defs1" />
  <g
     id="g1"
     inkscape:export-filename="g1.png"
     inkscape:export-xdpi="298.82352"
     inkscape:export-ydpi="298.82352">
    <path
       style="font-weight:500;font-size:70.5556px;font-family:Poppins;-inkscape-font-specification:'Poppins Medium';letter-spacing:0.211667px;direction:rtl;text-orientation:sideways;opacity:0.99;fill-opacity:0.986395;stroke-width:0.067649"
       d="m 63.467968,6.4254258 v 5.5021302 q 0,0.559232 0.252558,0.811789 0.270595,0.234517 0.901988,0.234517 h 1.262784 v 1.71378 h -1.623581 q -1.389062,0 -2.128693,-0.649434 -0.739631,-0.649431 -0.739631,-2.110652 V 6.4254258 H 60.220809 V 4.7477274 h 1.172584 V 2.2762781 h 2.074575 v 2.4714493 h 2.41733 v 1.6776984 z"
       id="path5" />
    <path
       style="font-weight:500;font-size:70.5556px;font-family:Poppins;-inkscape-font-specification:'Poppins Medium';letter-spacing:0.211667px;direction:rtl;text-orientation:sideways;opacity:0.99;fill-opacity:0.986395;stroke-width:0.067649"
       d="m 54.3218,4.5853695 q 1.172584,0 2.092613,0.4870735 0.938068,0.4870735 1.461221,1.4431821 0.523152,0.9561087 0.523152,2.3090914 V 14.687642 H 56.360293 V 9.1313913 q 0,-1.3349419 -0.667472,-2.0384933 -0.667472,-0.7215923 -1.822016,-0.7215923 -1.154545,0 -1.840058,0.7215923 -0.66747,0.7035514 -0.66747,2.0384933 V 14.687642 H 49.306743 V 4.7477274 h 2.056534 V 5.8842322 Q 51.868389,5.2708801 52.644101,4.9281261 53.43785,4.5853695 54.3218,4.5853695 Z"
       id="path4" />
    <path
       style="font-weight:500;font-size:70.5556px;font-family:Poppins;-inkscape-font-specification:'Poppins Medium';letter-spacing:0.211667px;direction:rtl;text-orientation:sideways;opacity:0.99;fill-opacity:0.986395;stroke-width:0.067649"
       d="m 36.336157,9.6725849 q 0,-1.4973022 0.613352,-2.6518454 0.631393,-1.1545457 1.69574,-1.7859386 1.082384,-0.6494314 2.38125,-0.6494314 1.172584,0 2.038493,0.4690326 0.88395,0.4509943 1.407103,1.1365074 V 4.7477274 h 2.074572 V 14.687642 H 44.472095 V 13.20838 Q 43.948942,13.911932 43.046954,14.380965 42.144965,14.85 40.990419,14.85 q -1.280824,0 -2.34517,-0.649432 -1.064347,-0.667472 -1.69574,-1.840058 -0.613352,-1.190625 -0.613352,-2.6879251 z m 8.135938,0.036079 q 0,-1.0282671 -0.432956,-1.7859361 -0.414915,-0.7576715 -1.100426,-1.1545457 -0.68551,-0.3968766 -1.479261,-0.3968766 -0.793748,0 -1.479261,0.3968766 -0.685511,0.3788333 -1.118464,1.1365048 -0.414915,0.7396307 -0.414915,1.7678978 0,1.0282673 0.414915,1.8039773 0.432953,0.77571 1.118464,1.190625 0.703551,0.396874 1.479261,0.396874 0.793751,0 1.479261,-0.396874 0.685511,-0.396874 1.100426,-1.154546 0.432956,-0.77571 0.432956,-1.8039771 z"
       id="path3" />
    <path
       style="font-weight:500;font-size:70.5556px;font-family:Poppins;-inkscape-font-specification:'Poppins Medium';letter-spacing:0.211667px;direction:rtl;text-orientation:sideways;opacity:0.99;fill-opacity:0.986395;stroke-width:0.067649"
       d="m 25.45817,9.7086641 q 0,-1.5333814 0.613352,-2.6879246 0.631393,-1.1725866 1.731819,-1.8039795 1.100425,-0.6313905 2.525567,-0.6313905 1.803977,0 2.976563,0.8659093 1.190625,0.8478684 1.60554,2.4353674 H 32.692119 Q 32.421521,7.1470156 31.82621,6.7321031 q -0.595314,-0.414915 -1.497302,-0.414915 -1.262784,0 -2.020455,0.9019885 -0.739631,0.8839476 -0.739631,2.4894875 0,1.6055399 0.739631,2.5075289 0.757671,0.901988 2.020455,0.901988 1.785938,0 2.363211,-1.569461 h 2.218892 Q 34.478055,13.064061 33.28743,13.966049 32.096805,14.85 30.328908,14.85 28.903766,14.85 27.803341,14.218607 26.702915,13.569175 26.071522,12.41463 25.45817,11.242046 25.45817,9.7086641 Z"
       id="path2" />
    <path
       style="font-weight:500;font-size:70.5556px;font-family:Poppins;-inkscape-font-specification:'Poppins Medium';letter-spacing:0.211667px;direction:rtl;text-orientation:sideways;opacity:0.99;fill-opacity:0.986395;stroke-width:0.067649"
       d="m 24.069095,9.4741479 q 0,0.5592321 -0.07216,1.0102261 h -7.594744 q 0.0902,1.190625 0.88395,1.912215 0.793748,0.721592 1.948294,0.721592 1.65966,0 2.345171,-1.389062 H 23.7985 Q 23.347506,13.10014 22.156881,13.98409 20.984297,14.85 19.234437,14.85 17.809296,14.85 16.672791,14.218607 15.554325,13.569175 14.904893,12.41463 14.2735,11.242046 14.2735,9.7086641 q 0,-1.5333814 0.613352,-2.6879246 0.631393,-1.1725866 1.74986,-1.8039795 1.136505,-0.6313905 2.597725,-0.6313905 1.407103,0 2.507529,0.6133521 1.100425,0.6133521 1.713777,1.7318186 0.613352,1.1004255 0.613352,2.5436077 z M 21.922364,8.8247165 Q 21.904313,7.6882092 21.110573,7.0026986 20.316824,6.3171881 19.144238,6.3171881 q -1.064347,0 -1.822016,0.6855105 -0.757671,0.6674722 -0.901988,1.8220179 z"
       id="path1" />
    <path
       style="font-weight:500;font-size:70.5556px;font-family:Poppins;-inkscape-font-specification:'Poppins Medium';letter-spacing:0.211667px;direction:rtl;text-orientation:sideways;opacity:0.99;fill-opacity:0.986395;stroke-width:0.067649"
       d="m 6.2097291,2.1499996 q 2.0024166,0 3.4997163,0.7757099 1.5153406,0.7576715 2.3271296,2.2008537 0.82983,1.4251412 0.82983,3.3373559 0,1.9122169 -0.82983,3.3193179 -0.811789,1.407103 -2.3271296,2.164774 -1.4972997,0.739631 -3.4997163,0.739631 H 2.1147023 V 2.1499996 Z m 0,10.8599434 q 2.2008537,0 3.3734377,-1.190625 1.1725862,-1.190624 1.1725862,-3.3553989 0,-2.1828102 -1.1725862,-3.409517 Q 8.4105828,3.827698 6.2097291,3.827698 H 4.1712358 v 9.182245 z"
       id="text1" />
    <path
       id="path8"
       style="font-weight:500;font-size:70.5556px;font-family:Poppins;-inkscape-font-specification:'Poppins Medium';letter-spacing:0.211667px;direction:rtl;text-orientation:sideways;opacity:0.99;fill:#b01030;fill-opacity:0.98823529;stroke-width:0.067649"
       d="M 4.1712025,8.9103315 V 13.009972 H 6.209793 c 1.4672341,0 2.5916144,-0.396849 3.373338,-1.190597 0.699154,-0.709911 1.085698,-1.679652 1.159547,-2.9090435 -3.1278148,1.0475967 -5.018,0.7119608 -6.5714755,0 z" />
  </g>
</svg>
