<?xml version="1.0" encoding="UTF-8" standalone="no"?>
<svg
   width="1126.6588"
   zoomAndPan="magnify"
   viewBox="0 0 844.99411 1046.25"
   height="1395"
   preserveAspectRatio="xMidYMid"
   version="1.0"
   id="svg20"
   sodipodi:docname="decant-logo.svg"
   inkscape:export-filename="decant-icon.png"
   inkscape:export-xdpi="96"
   inkscape:export-ydpi="96"
   inkscape:version="1.4.2 (f4327f4, 2025-05-13)"
   xmlns:inkscape="http://www.inkscape.org/namespaces/inkscape"
   xmlns:sodipodi="http://sodipodi.sourceforge.net/DTD/sodipodi-0.dtd"
   xmlns="http://www.w3.org/2000/svg"
   xmlns:svg="http://www.w3.org/2000/svg">
  <sodipodi:namedview
     id="namedview1"
     pagecolor="#ffffff"
     bordercolor="#000000"
     borderopacity="0.25"
     inkscape:showpageshadow="2"
     inkscape:pageopacity="0.0"
     inkscape:pagecheckerboard="0"
     inkscape:deskcolor="#d1d1d1"
     inkscape:zoom="0.51657165"
     inkscape:cx="565.26524"
     inkscape:cy="696.90236"
     inkscape:window-width="1698"
     inkscape:window-height="1468"
     inkscape:window-x="436"
     inkscape:window-y="162"
     inkscape:window-maximized="0"
     inkscape:current-layer="svg20" />
  <defs
     id="defs1">
    <g
       id="g1" />
    <clipPath
       id="671eacf0b2">
      <path
         d="m 193,210.57031 h 846 V 1256.8203 H 193 Z m 0,0"
         clip-rule="nonzero"
         id="path1" />
    </clipPath>
  </defs>
  <g
     clip-path="url(#671eacf0b2)"
     id="g2"
     transform="translate(-193.03975,-210.57031)">
    <path
       fill="#000000"
       d="m 1034.7383,1041.7305 c -7.7461,-23.4493 -24.8125,-43.31644 -48.10158,-55.91409 C 904.91797,941.62109 841.61328,882.05469 792.20312,802.25781 766.61719,760.96484 719,684.07031 715.95312,579.05078 714.375,524.48437 725.61719,469 746.05469,368.31641 c 7.15234,-35.22266 15.16797,-70.57032 23.8789,-105.03907 3.96485,-15.71093 -5.07031,-31.45703 -20.54297,-35.88281 -16.20703,-4.62109 -32.80859,-8.25781 -49.39453,-10.80469 -34.42187,-5.30078 -62.01172,-6.01953 -84.47656,-6.01953 -22.46484,0 -50.05859,0.71875 -84.48047,6.01953 -16.5664,2.54688 -33.18359,6.1836 -49.39062,10.80469 -15.47266,4.40625 -24.50782,20.17188 -20.54688,35.88281 8.69531,34.46875 16.72656,69.81641 23.87891,105.03907 20.4414,100.69921 31.67969,156.16796 30.10156,210.73437 -3.02734,105.01953 -50.66406,181.89453 -77.16016,224.69531 -48.48046,78.3086 -111.78515,137.85547 -193.51953,182.07032 -23.27343,12.59765 -40.33984,32.44529 -48.08593,55.91409 -1.64844,5.0703 -2.65235,9.6562 -2.99219,13.9922 -3.33594,41.7773 23.53906,72.8437 34.99609,86.1015 42.65235,49.375 108.73438,71.125 167.71875,85.8867 34.97656,8.7422 126.41406,29.1094 219.4961,29.1094 93.08593,0 184.51953,-20.3515 219.49609,-29.1094 58.98437,-14.7617 125.07031,-36.5117 167.72265,-85.8671 11.457,-13.2774 38.3281,-44.3438 34.9961,-86.1211 -0.3594,-4.336 -1.3437,-8.9219 -3.0117,-13.9922 z M 470.87109,822.07422 c 25.47657,-41.15235 78.52735,-126.78906 81.87891,-241.92969 1.6875,-58.88672 -9.85938,-115.875 -30.83594,-219.31641 -6.77734,-33.26953 -14.28906,-66.64453 -22.42969,-99.30468 12.30079,-3.22657 24.8125,-5.82422 37.29297,-7.73828 31.91016,-4.91016 57.73047,-5.57422 78.74219,-5.57422 21.01172,0 46.82813,0.66406 78.73828,5.57422 12.48047,1.91406 24.97656,4.51171 37.29297,7.73828 -8.12109,32.66015 -15.65234,66.03515 -22.42969,99.30468 -20.97656,103.44141 -32.51953,160.41016 -30.83593,219.31641 3.35156,115.14063 56.40234,200.77734 82.79296,243.41406 41.50391,67.03907 93.33594,121.07032 157,164.33594 H 312.92187 C 376.66016,944.59375 428.61328,890.3125 470.87109,822.07422 Z m 503.35938,295.17188 c -28.84766,33.3906 -71.82422,54.8203 -148.375,73.9531 -33.61719,8.418 -121.44922,27.9844 -210.33594,27.9844 -88.89062,0 -176.72266,-19.5664 -210.33594,-27.9844 -76.53515,-19.1328 -119.53125,-40.5625 -148.375,-73.9726 -9.80859,-11.3399 -28.03906,-32.4258 -25.96093,-58.5118 0.0547,-0.7343 0.28515,-2.3828 1.23828,-5.2148 3.54687,-10.8008 10.57422,-20.4414 20.14843,-27.9648 h 726.53125 c 9.58985,7.5234 16.60157,17.164 20.16797,27.9648 0.9336,2.832 1.18361,4.4805 1.23831,5.2148 2.0976,26.086 -16.13674,47.1875 -25.94143,58.5313 z m 0,0"
       fill-opacity="1"
       fill-rule="nonzero"
       id="path2" />
  </g>
  <path
     style="opacity:0.99;fill:#b01030;fill-opacity:0.98823529;stroke-width:1.3454"
     d="m 54.354153,811.72331 c -13.76238,13.6752 -25.553685,32.9865 -20.125867,53.0961 7.444897,28.9515 30.185399,50.91922 52.525911,69.3198 42.906063,31.07887 95.400893,44.2887 146.152303,56.42287 58.76311,12.70592 118.64212,21.58892 178.80984,22.90702 84.80232,0.1406 169.50399,-12.606 250.95714,-35.99317 44.53275,-13.2468 90.3348,-31.21237 121.42897,-67.3515 17.10098,-18.36562 33.5388,-44.10382 25.50375,-70.16872 -4.20562,-11.62012 -11.9397,-22.68615 -22.04407,-29.6094 -243.14937,-0.0981 -486.30413,-0.0143 -729.455562,-0.042 -1.250805,0.47295 -2.50161,0.94598 -3.752415,1.419 z"
     id="path20" />
  <path
     style="opacity:0.99;fill:#ffffff;fill-opacity:0.986395;stroke-width:1.3454"
     d="m 417.98879,33.260366 c -37.25211,-0.206527 -74.87769,2.698688 -110.7908,13.00206 -8.07065,5.058315 -1.27048,15.82875 -1.08579,23.148187 17.68355,79.034447 34.66831,158.787587 45.95183,238.911127 3.26535,43.13879 4.24614,87.53347 -5.55505,130.11259 -14.63042,69.56587 -47.3683,133.53446 -87.06313,192.31399 -37.80221,55.14367 -85.45466,103.76167 -140.69366,141.59827 -7.48364,9.53992 7.17331,11.9157 14.0663,10.2771 196.67499,0 393.35,0 590.02501,0 11.62425,-3.37703 1.13385,-13.85408 -5.39557,-16.57118 C 669.51918,731.54929 626.74481,689.76364 592.86086,641.29414 541.82943,568.93639 500.9682,486.19244 492.13573,397.46522 c -7.47695,-73.18039 9.25839,-146.41069 23.14152,-217.95194 7.88935,-42.00873 18.52359,-83.351923 26.30469,-125.315074 1.25363,-10.37091 -12.21624,-9.71118 -19.00919,-11.877165 -34.36708,-7.841872 -69.45112,-9.436192 -104.58396,-9.060675 z"
     id="path21" />
</svg>
