<?xml version="1.0" encoding="UTF-8" standalone="no"?>
<!-- Created with Inkscape (http://www.inkscape.org/) -->

<svg
   width="68mm"
   height="17mm"
   viewBox="0 0 68 17"
   version="1.1"
   id="svg1"
   xmlns="http://www.w3.org/2000/svg"
   xmlns:svg="http://www.w3.org/2000/svg">
  <defs
     id="defs1" />
  <g
     id="layer1"
     transform="translate(-95.779913,-118.25255)">
    <g
       id="g8"
       transform="matrix(0.25568162,0,0,0.25568162,73.405452,90.167546)">
      <path
         style="font-weight:500;font-size:70.5556px;font-family:Poppins;-inkscape-font-specification:'Poppins Medium';letter-spacing:0.211667px;direction:rtl;text-orientation:sideways;opacity:0.99;fill-opacity:0.986395;stroke-width:0.264583"
         d="m 335.73954,134.97423 v 21.51946 q 0,2.18722 0.98778,3.175 1.05833,0.91722 3.52778,0.91722 h 4.93889 v 6.70279 h -6.35001 q -5.43278,0 -8.32556,-2.54001 -2.89278,-2.54 -2.89278,-8.255 v -21.51946 h -4.58611 v -6.56167 h 4.58611 v -9.66612 h 8.1139 v 9.66612 h 9.45445 v 6.56167 z"
         id="path5" />
      <path
         style="font-weight:500;font-size:70.5556px;font-family:Poppins;-inkscape-font-specification:'Poppins Medium';letter-spacing:0.211667px;direction:rtl;text-orientation:sideways;opacity:0.99;fill-opacity:0.986395;stroke-width:0.264583"
         d="m 299.96783,127.77756 q 4.58611,0 8.18445,1.905 3.66889,1.905 5.715,5.64445 2.04611,3.73945 2.04611,9.03112 v 22.93057 h -7.97278 v -21.73113 q 0,-5.22111 -2.61056,-7.97278 -2.61056,-2.82223 -7.12611,-2.82223 -4.51556,0 -7.19668,2.82223 -2.61055,2.75167 -2.61055,7.97278 v 21.73113 h -8.04334 v -38.87614 h 8.04334 v 4.445 q 1.97555,-2.39889 5.00945,-3.73944 3.10444,-1.34056 6.56167,-1.34056 z"
         id="path4" />
      <path
         style="font-weight:500;font-size:70.5556px;font-family:Poppins;-inkscape-font-specification:'Poppins Medium';letter-spacing:0.211667px;direction:rtl;text-orientation:sideways;opacity:0.99;fill-opacity:0.986395;stroke-width:0.264583"
         d="m 229.62393,147.67424 q 0,-5.85612 2.39889,-10.37167 2.46945,-4.51556 6.63223,-6.98501 4.23333,-2.54 9.31334,-2.54 4.58611,0 7.97278,1.83444 3.45723,1.76389 5.50334,4.44501 v -5.64445 h 8.11389 v 38.87614 h -8.11389 v -5.78556 q -2.04611,2.75167 -5.57389,4.58611 -3.52778,1.83445 -8.04334,1.83445 -5.00945,0 -9.17223,-2.54 -4.16278,-2.61056 -6.63223,-7.19668 -2.39889,-4.65667 -2.39889,-10.51278 z m 31.82058,0.14111 q 0,-4.02167 -1.69334,-6.985 -1.62278,-2.96334 -4.30389,-4.51556 -2.68111,-1.55223 -5.78556,-1.55223 -3.10444,0 -5.78556,1.55223 -2.68111,1.48166 -4.37444,4.445 -1.62278,2.89278 -1.62278,6.91445 0,4.02167 1.62278,7.05556 1.69333,3.03389 4.37444,4.65667 2.75167,1.55222 5.78556,1.55222 3.10445,0 5.78556,-1.55222 2.68111,-1.55222 4.30389,-4.51556 1.69334,-3.03389 1.69334,-7.05556 z"
         id="path3" />
      <path
         style="font-weight:500;font-size:70.5556px;font-family:Poppins;-inkscape-font-specification:'Poppins Medium';letter-spacing:0.211667px;direction:rtl;text-orientation:sideways;opacity:0.99;fill-opacity:0.986395;stroke-width:0.264583"
         d="m 187.07888,147.81535 q 0,-5.99723 2.39889,-10.51278 2.46945,-4.58612 6.77334,-7.05557 4.30389,-2.46944 9.87778,-2.46944 7.05556,0 11.64168,3.38667 4.65667,3.31611 6.27945,9.525 h -8.67834 q -1.05834,-2.89278 -3.38667,-4.51555 -2.32834,-1.62278 -5.85612,-1.62278 -4.93889,0 -7.90223,3.52778 -2.89278,3.45722 -2.89278,9.73667 0,6.27945 2.89278,9.80723 2.96334,3.52778 7.90223,3.52778 6.98501,0 9.24279,-6.13834 h 8.67834 q -1.69334,5.92667 -6.35001,9.45445 -4.65667,3.45723 -11.57112,3.45723 -5.57389,0 -9.87778,-2.46945 -4.30389,-2.54 -6.77334,-7.05556 -2.39889,-4.58611 -2.39889,-10.58334 z"
         id="path2" />
      <path
         style="font-weight:500;font-size:70.5556px;font-family:Poppins;-inkscape-font-specification:'Poppins Medium';letter-spacing:0.211667px;direction:rtl;text-orientation:sideways;opacity:0.99;fill-opacity:0.986395;stroke-width:0.264583"
         d="m 181.64605,146.89813 q 0,2.18722 -0.28222,3.95111 h -29.70391 q 0.35278,4.65667 3.45723,7.47889 3.10444,2.82223 7.62,2.82223 6.49112,0 9.17223,-5.43278 h 8.67834 q -1.76389,5.36222 -6.42056,8.81945 -4.58611,3.38667 -11.43001,3.38667 -5.57389,0 -10.01889,-2.46945 -4.37445,-2.54 -6.91445,-7.05556 -2.46945,-4.58611 -2.46945,-10.58334 0,-5.99723 2.39889,-10.51278 2.46945,-4.58612 6.8439,-7.05557 4.445,-2.46944 10.16,-2.46944 5.50334,0 9.80723,2.39889 4.30389,2.39889 6.70278,6.77334 2.39889,4.30389 2.39889,9.94834 z m -8.39611,-2.54 q -0.0706,-4.44501 -3.17501,-7.12612 -3.10444,-2.68111 -7.69056,-2.68111 -4.16278,0 -7.12611,2.68111 -2.96334,2.61056 -3.52778,7.12612 z"
         id="path1" />
      <path
         style="font-weight:500;font-size:70.5556px;font-family:Poppins;-inkscape-font-specification:'Poppins Medium';letter-spacing:0.211667px;direction:rtl;text-orientation:sideways;opacity:0.99;fill-opacity:0.986395;stroke-width:0.264583"
         d="m 111.79603,118.25255 q 7.83168,0 13.68779,3.03389 5.92667,2.96334 9.10167,8.60779 3.24556,5.57389 3.24556,13.05278 0,7.4789 -3.24556,12.98223 -3.175,5.50334 -9.10167,8.46668 -5.85611,2.89278 -13.68779,2.89278 H 95.779913 v -49.03615 z m 0,42.47448 q 8.60779,0 13.1939,-4.65667 4.58612,-4.65667 4.58612,-13.12335 0,-8.53722 -4.58612,-13.33501 -4.58611,-4.79778 -13.1939,-4.79778 h -7.97278 v 35.91281 z"
         id="text1" />
      <path
         id="path8"
         style="font-weight:500;font-size:70.5556px;font-family:Poppins;-inkscape-font-specification:'Poppins Medium';letter-spacing:0.211667px;direction:rtl;text-orientation:sideways;opacity:0.99;fill:#800000;fill-opacity:0.988235;stroke-width:0.264583"
         d="m 103.82312,144.69298 v 16.03416 h 7.97316 c 5.73852,0 10.1361,-1.55212 13.19351,-4.65656 2.73447,-2.77654 4.24629,-6.56931 4.53512,-11.3776 -12.23324,4.09727 -19.62597,2.78456 -25.70179,0 z" />
    </g>
  </g>
</svg>
